HIERARCHY
ROOT SpineBase
{
  OFFSET 0.000000 0.000000 0.000000
  CHANNELS 6 Xposition Yposition Zposition Zrotation Xrotation Yrotation
  JOINT SpineMid
  {
    OFFSET 0.000000 32.038090 0.000000
    CHANNELS 3 Zrotation Xrotation Yrotation
    JOINT SpineShoulder
    {
      OFFSET 0.200666 23.645093 -0.688784
      CHANNELS 3 Zrotation Xrotation Yrotation
      JOINT Neck
      {
        OFFSET 0.216090 7.767218 -0.501687
        CHANNELS 3 Zrotation Xrotation Yrotation
        JOINT Head
        {
          OFFSET -7.566067 12.537293 1.529681
          CHANNELS 3 Zrotation Xrotation Yrotation
          End Site
          {
            OFFSET 0 0 0
          }
        }
      }
      JOINT ShoulderLeft
      {
        OFFSET -9.615229 -4.017162 13.644622
        CHANNELS 3 Zrotation Xrotation Yrotation
        JOINT ElbowLeft
        {
          OFFSET -6.862160 -27.145086 9.293384
          CHANNELS 3 Zrotation Xrotation Yrotation
          JOINT WristLeft
          {
            OFFSET 2.838359 -25.431795 -7.332969
            CHANNELS 3 Zrotation Xrotation Yrotation
            JOINT HandLeft
            {
              OFFSET -0.053530 -6.263186 -1.436319
              CHANNELS 3 Zrotation Xrotation Yrotation
              JOINT HandTipLeft
              {
                OFFSET 1.565002 -6.388040 -1.869798
                CHANNELS 3 Zrotation Xrotation Yrotation
                End Site
                {
                  OFFSET 0 0 0
                }
              }
              JOINT ThumbLeft
              {
                OFFSET 2.435469 1.252232 -3.761098
                CHANNELS 3 Zrotation Xrotation Yrotation
                End Site
                {
                  OFFSET 0 0 0
                }
              }
            }
          }
        }
      }
      JOINT ShoulderRight
      {
        OFFSET 8.201967 -3.474497 -12.701135
        CHANNELS 3 Zrotation Xrotation Yrotation
        JOINT ElbowRight
        {
          OFFSET 3.721853 -25.073964 -7.375659
          CHANNELS 3 Zrotation Xrotation Yrotation
          JOINT WristRight
          {
            OFFSET -5.510563 -27.062185 -2.439710
            CHANNELS 3 Zrotation Xrotation Yrotation
            JOINT HandRight
            {
              OFFSET -1.318348 -6.613554 -0.074081
              CHANNELS 3 Zrotation Xrotation Yrotation
              JOINT HandTipRight
              {
                OFFSET -1.349939 -6.852457 0.715259
                CHANNELS 3 Zrotation Xrotation Yrotation
                End Site
                {
                  OFFSET 0 0 0
                }
              }
              JOINT ThumbRight
              {
                OFFSET 2.715688 -0.555411 -1.270259
                CHANNELS 3 Zrotation Xrotation Yrotation
                End Site
                {
                  OFFSET 0 0 0
                }
              }
            }
          }
        }
      }
    }
  }
  JOINT HipLeft
  {
    OFFSET -4.566260 -0.119173 1.800101
    CHANNELS 3 Zrotation Xrotation Yrotation
    JOINT KneeLeft
    {
      OFFSET 0.709303 -31.320289 7.377250
      CHANNELS 3 Zrotation Xrotation Yrotation
      JOINT AnkleLeft
      {
        OFFSET 13.372076 -38.871795 7.363267
        CHANNELS 3 Zrotation Xrotation Yrotation
        JOINT FootLeft
        {
          OFFSET -7.063853 -5.156468 -8.263646
          CHANNELS 3 Zrotation Xrotation Yrotation
          End Site
          {
            OFFSET 0 0 0
          }
        }
      }
    }
  }
  JOINT HipRight
  {
    OFFSET 4.160641 1.645173 -8.760600
    CHANNELS 3 Zrotation Xrotation Yrotation
    JOINT KneeRight
    {
      OFFSET 6.071774 -32.053825 -2.973753
      CHANNELS 3 Zrotation Xrotation Yrotation
      JOINT AnkleRight
      {
        OFFSET 8.023321 -38.672671 4.057681
        CHANNELS 3 Zrotation Xrotation Yrotation
        JOINT FootRight
        {
          OFFSET -8.814456 -3.954103 -9.369033
          CHANNELS 3 Zrotation Xrotation Yrotation
          End Site
          {
            OFFSET 0 0 0
          }
        }
      }
    }
  }
}
MOTION
Frames: 13
Frame Time: 0.033333
22.405149 79.993289 347.899726 -0.000000 0.000000 50.431160 -0.000000 0.000000 -50.431160 -0.000000 0.000000 0.000000 -0.000000 0.000000 0.000000 0.000000 0.000000 0.000000 -0.000000 0.000000 0.000000 -0.000000 0.000000 0.000000 -0.000000 0.000000 0.000000 -0.000000 0.000000 0.000000 0.000000 0.000000 0.000000 0.000000 0.000000 0.000000 -0.000000 0.000000 0.000000 -0.000000 0.000000 0.000000 -0.000000 0.000000 0.000000 -0.000000 0.000000 0.000000 0.000000 0.000000 0.000000 0.000000 0.000000 0.000000 -0.000000 0.000000 -50.431160 -0.000000 0.000000 0.000000 -0.000000 0.000000 0.000000 0.000000 0.000000 0.000000 -0.000000 0.000000 -50.431160 -0.000000 0.000000 0.000000 -0.000000 0.000000 0.000000 0.000000 0.000000 0.000000
22.409662 80.003356 347.805884 -0.068925 0.174813 50.202080 -0.090192 -0.164850 -50.202105 -0.000000 0.000000 0.000000 -0.000000 0.000000 0.000000 0.000000 0.000000 0.000000 -0.000000 0.000000 0.000000 -0.000000 0.000000 0.000000 1.054690 0.201880 -0.245379 1.489369 7.314266 1.149641 0.000000 0.000000 0.000000 0.000000 0.000000 0.000000 -0.000000 0.000000 0.000000 -0.000000 0.000000 0.000000 1.262029 -1.912329 0.389092 -1.449219 3.042156 -0.580867 0.000000 0.000000 0.000000 0.000000 0.000000 0.000000 -0.090192 -0.164850 -50.202105 -0.000000 0.000000 0.000000 0.391210 -0.740485 0.395936 0.000000 0.000000 0.000000 -0.090192 -0.164850 -50.202105 -0.000000 0.000000 0.000000 -0.000000 0.000000 0.000000 0.000000 0.000000 0.000000
22.403772 80.014051 347.730850 -0.143531 0.322827 50.034816 -0.155234 -0.317366 -50.034841 -0.000000 0.000000 0.000000 -0.000000 0.000000 0.000000 0.000000 0.000000 0.000000 -0.000000 0.000000 0.000000 -0.000000 0.000000 0.000000 1.898977 0.391002 -0.445061 1.987139 12.097322 1.877687 0.000000 0.000000 0.000000 0.000000 0.000000 0.000000 0.860373 -0.526172 -0.327317 -0.863401 0.521189 0.335195 2.236916 -3.498817 0.744082 -2.556043 5.591520 -1.026234 0.000000 0.000000 0.000000 0.000000 0.000000 0.000000 -0.155234 -0.317366 -50.034841 -0.000000 0.000000 0.000000 1.098768 -1.748632 0.676931 0.000000 0.000000 0.000000 -0.155234 -0.317366 -50.034841 -0.000000 0.000000 0.000000 -0.000000 0.000000 0.000000 0.000000 0.000000 0.000000
22.387479 80.025372 347.674625 -0.223820 0.443937 49.928149 -0.195635 -0.457058 -49.928062 -0.000000 0.000000 0.000000 -0.000000 0.000000 0.000000 0.000000 0.000000 0.000000 -0.000000 0.000000 0.000000 -0.000000 0.000000 0.000000 2.568944 0.574475 -0.606432 1.828750 15.101254 2.452029 0.000000 0.000000 0.000000 0.000000 0.000000 0.000000 1.214550 -0.748692 -0.460637 -1.220631 0.738735 0.476442 2.871354 -4.699878 1.028672 -3.289119 7.589270 -1.357257 0.000000 0.000000 0.000000 0.000000 0.000000 0.000000 -0.195635 -0.457058 -49.928062 -0.000000 0.000000 0.000000 2.148730 -3.052531 0.854422 0.000000 0.000000 0.000000 -0.195635 -0.457058 -49.928062 -0.000000 0.000000 0.000000 -0.000000 0.000000 0.000000 0.000000 0.000000 0.000000
22.360782 80.037322 347.637209 -0.309794 0.538045 49.881090 -0.211824 -0.583604 -49.880715 -0.000000 0.000000 0.000000 -0.000000 0.000000 0.000000 0.000000 0.000000 0.000000 -0.000000 0.000000 0.000000 -0.000000 0.000000 0.000000 3.089632 0.758123 -0.734678 1.170022 16.783904 2.987162 0.000000 0.000000 0.000000 0.000000 0.000000 0.000000 1.518126 -0.943557 -0.574408 -1.527709 0.927959 0.599282 3.125991 -5.472153 1.213258 -3.626439 8.992567 -1.591664 0.000000 0.000000 0.000000 0.000000 0.000000 0.000000 -0.211824 -0.583604 -49.880715 -0.000000 0.000000 0.000000 3.577007 -4.690448 0.943559 0.000000 0.000000 0.000000 -0.942394 -1.044606 -50.042361 0.115866 0.855991 0.150401 -0.000000 0.000000 0.000000 0.000000 0.000000 0.000000
22.323681 80.049898 347.618600 -0.401452 0.605065 49.892873 -0.204154 -0.696839 -49.891995 -0.000000 0.000000 0.000000 -0.000000 0.000000 0.000000 0.000000 0.000000 0.000000 -0.000000 0.000000 0.000000 -0.000000 0.000000 0.000000 3.477785 0.947152 -0.833268 0.063989 17.381397 3.531900 0.000000 0.000000 0.000000 0.000000 0.000000 0.000000 1.771119 -1.110382 -0.669052 -1.784285 1.089094 0.703176 2.979644 -5.789454 1.279679 -3.558821 9.776902 -1.740863 0.000000 0.000000 0.000000 0.000000 0.000000 0.000000 -0.204154 -0.696839 -49.891995 -0.000000 0.000000 0.000000 5.430573 -6.710640 0.966149 0.000000 0.000000 0.000000 -0.997610 -1.238512 -50.077630 0.093839 0.956030 0.171451 0.055001 0.304742 -0.805572 0.000000 0.000000 0.000000
22.241236 80.065646 347.541808 -0.536927 0.750045 50.109175 -0.231132 -0.892986 -50.107462 -0.000000 0.000000 0.000000 -0.000000 0.000000 0.000000 0.000000 0.000000 0.000000 -0.000000 0.000000 0.000000 -0.367023 -0.931624 -0.001138 4.399196 2.781883 -1.072361 -4.047644 14.980231 4.809580 0.000000 0.000000 0.000000 0.000000 0.000000 0.000000 1.995334 -1.230383 -0.748629 -2.011682 1.203461 0.791187 2.039693 -5.257532 1.124114 -3.167064 9.578306 -1.758037 0.000000 0.000000 0.000000 0.000000 0.000000 0.000000 -0.231132 -0.892986 -50.107462 -0.000000 0.000000 0.000000 6.018839 -7.831027 1.835696 0.000000 0.000000 0.000000 -1.189733 -1.682057 -50.363559 0.003934 1.241392 0.234514 0.042734 0.355371 -0.887778 0.000000 0.000000 0.000000
22.153073 80.109307 347.512275 -0.672014 0.807921 50.491073 -0.195776 -1.032466 -50.488099 -0.000000 0.000000 0.000000 -0.000000 0.000000 0.000000 0.000000 0.000000 0.000000 -0.000000 0.000000 0.000000 -0.400493 -1.028411 -0.002906 4.547281 2.759391 -1.103642 -7.715747 11.618779 5.395455 0.000000 0.000000 0.000000 0.000000 0.000000 0.000000 2.117394 -1.327460 -0.795949 -2.136176 1.297010 0.844664 0.761769 -4.420669 0.904095 -2.038460 8.537312 -1.647954 0.000000 0.000000 0.000000 0.000000 0.000000 0.000000 -0.195776 -1.032466 -50.488099 -0.000000 0.000000 0.000000 6.026772 -7.853719 1.861350 0.000000 0.000000 0.000000 -1.207866 -2.026134 -50.794421 -0.130124 1.412098 0.280914 0.027876 0.393090 -0.935305 0.000000 0.000000 0.000000
22.104224 80.134632 347.496223 -0.760770 0.853309 50.673554 -0.177913 -1.129254 -50.669642 -0.000000 0.000000 0.000000 -0.000000 0.000000 0.000000 0.000000 0.000000 0.000000 -0.000000 0.000000 0.000000 -0.418808 -1.074449 -0.003097 4.302794 3.446192 -1.064049 -9.035669 8.163363 5.115230 0.000000 0.000000 0.000000 0.000000 0.000000 0.000000 2.255328 -1.386652 -0.842568 -2.276107 1.352263 0.896729 -0.544907 -3.514989 0.689858 0.423934 7.130588 -1.446757 0.000000 0.000000 0.000000 0.000000 0.000000 0.000000 -0.177913 -1.129254 -50.669642 -0.000000 0.000000 0.000000 11.127488 -12.183992 0.081197 0.000000 0.000000 0.000000 -1.088434 -2.194844 -50.980519 -0.254588 1.378044 0.287528 0.016959 0.423379 -0.975800 0.000000 0.000000 0.000000
22.088376 80.138873 347.718158 -0.812880 0.563716 50.516813 0.081835 -0.985815 -50.512110 -0.000000 0.000000 0.000000 -0.602775 -0.528465 -0.249088 0.000000 0.000000 0.000000 -0.000000 0.000000 0.000000 -0.696602 -2.373562 -0.079040 1.962079 3.993664 -0.323612 -6.352881 8.314641 4.449224 0.000000 0.000000 0.000000 0.000000 0.000000 0.000000 2.316884 -1.453608 -0.868618 -2.339367 1.417128 0.926950 -2.343981 -1.131942 0.227846 2.296845 3.524870 -0.752962 0.000000 0.000000 0.000000 0.000000 0.000000 0.000000 0.081835 -0.985815 -50.512110 -0.000000 0.000000 0.000000 17.957924 -18.154813 -1.978121 0.000000 0.000000 0.000000 -0.429491 -1.786583 -50.722900 -0.296179 0.902669 0.200753 0.032827 0.428061 -1.023705 0.000000 0.000000 0.000000
22.090582 80.112645 348.204969 -0.820658 0.005721 50.139051 0.521612 -0.633596 -50.136126 -0.000000 0.000000 0.000000 -0.695233 -0.526852 -0.237321 0.000000 0.000000 0.000000 -0.000000 0.000000 0.000000 -0.717287 -2.178335 -0.050270 2.247241 3.005875 -0.403580 -6.313144 9.387860 4.539889 0.000000 0.000000 0.000000 0.000000 0.000000 0.000000 2.288304 -1.544828 -0.872530 -2.449287 2.312501 0.785542 -2.802688 -3.285536 0.572825 2.922888 7.685918 -1.630548 0.000000 0.000000 0.000000 0.000000 0.000000 0.000000 1.499638 -0.174081 -50.040782 -0.275873 -1.044768 -0.090966 20.724545 -20.665841 -2.488391 0.000000 0.000000 0.000000 0.521612 -0.633596 -50.136126 -0.000000 0.000000 0.000000 0.082251 0.412148 -1.106253 0.000000 0.000000 0.000000
22.136141 80.094286 348.792646 -0.735600 -0.633310 49.642364 0.958921 -0.150463 -49.645171 -0.000000 0.000000 0.000000 -0.809010 -0.486192 -0.199086 0.000000 0.000000 0.000000 -0.890683 -0.539394 -0.172159 1.745577 1.590468 0.017285 4.887430 -1.660214 -1.055817 -8.320077 11.443754 4.902605 0.000000 0.000000 0.000000 0.000000 0.000000 0.000000 2.157567 -1.687789 -0.854796 -2.307846 2.643930 0.730816 -3.519778 -4.393826 0.735760 3.776889 11.051998 -2.365833 0.000000 0.000000 0.000000 0.000000 0.000000 0.000000 2.814692 1.057601 -49.543442 -0.285429 -2.195799 -0.121891 30.256203 -30.018487 3.743392 0.000000 0.000000 0.000000 1.966537 0.786144 -49.385000 0.054977 -1.374572 -0.265101 0.154639 0.388210 -1.226131 0.000000 0.000000 0.000000
22.261909 80.002249 349.492988 -0.548197 -1.360320 48.958150 1.385981 0.479620 -48.970459 0.783297 -0.407456 0.064713 -1.576381 -0.435951 -0.474718 0.000000 0.000000 0.000000 -0.782856 0.408303 -0.059138 0.880029 2.581306 0.014455 8.502136 -3.084208 -1.742150 -11.529175 12.230052 5.774825 0.000000 0.000000 0.000000 0.000000 0.000000 0.000000 1.174339 -1.578574 -0.912400 -2.294105 3.306401 0.670789 -3.136131 -6.310073 1.044075 3.241484 14.832118 -3.151621 0.000000 0.000000 0.000000 0.000000 0.000000 0.000000 3.812817 2.720969 -48.986669 0.097073 -3.301275 -0.048790 31.568031 -31.094628 4.643626 0.000000 0.000000 0.000000 3.147317 2.820029 -48.422623 0.581371 -2.870383 -0.583996 0.277923 0.376708 -1.495548 0.000000 0.000000 0.000000
